<?xml version="1.0" encoding="utf-8"?>
<!-- Generator: Adobe Illustrator 19.2.1, SVG Export Plug-In . SVG Version: 6.00 Build 0)  -->
<svg version="1.1" id="layer" xmlns="http://www.w3.org/2000/svg" xmlns:xlink="http://www.w3.org/1999/xlink" x="0px" y="0px"
	 viewBox="0 0 652 652" style="enable-background:new 0 0 652 652;" xml:space="preserve">
<style type="text/css">
	.st0{fill:#003DA7;}
</style>
<path class="st0" d="M139.4,386.2c64.6-23.4,166.7-47.5,219.2-40.5c62.9,8.1,96.3,31.3,133.8,43c45.9,14.3,129.3,4.8,129.3,4.8
	c-33.4,7.8-67.7,11.5-102,11.1c-53.2-1.8-93.3-24.8-136.5-38.2c-70.8-22.2-172.2,3.4-243.9,20.3L139.4,386.2z M49.1,320.7V218.5
	H21.9v4.1h9.6v98h-9.6v4.1h36.8v-4.1H49.1z M104.6,320c2.1-1.7,3.7-4.1,4.6-6.6c1.1-3,1.7-6.2,1.8-9.5c0-3.6,0.4-7.2,0.4-10.8
	c0-3.7,0-7.2-0.4-10.8c-0.2-3.2-0.8-6.4-1.8-9.4c-0.9-2.6-2.5-4.9-4.6-6.6c-2.5-1.8-5.6-2.7-8.7-2.5c-3.1-0.2-6.1,0.7-8.7,2.5
	c-2.1,1.7-3.7,4-4.6,6.6c-1.1,3-1.7,6.2-1.9,9.4v21.6c0.2,3.3,0.9,6.5,2.1,9.5c0.9,2.6,2.5,4.9,4.6,6.6c2.5,1.8,5.6,2.7,8.6,2.5
	c3.1,0.2,6.2-0.7,8.7-2.5H104.6z M110,262.2c4.1,1.7,7.8,4.2,11.1,7.3c6.4,6.1,10,14.7,10,23.6c0,4.5-0.9,8.9-2.6,13
	c-1.7,4-4.2,7.6-7.4,10.6c-3.2,3.1-7,5.6-11.1,7.3c-8.9,3.4-18.7,3.4-27.6,0c-4.1-1.7-7.9-4.2-11.1-7.3c-3.1-3-5.6-6.6-7.4-10.6
	c-1.7-4.1-2.6-8.6-2.6-13c-0.1-8.9,3.6-17.4,10-23.6c3.2-3.1,7-5.6,11.1-7.3C91.2,258.5,101.2,258.5,110,262.2L110,262.2z
	 M207.5,320.7v-39.5c0.3-5.6-1.5-11.1-5.2-15.3c-1.9-1.9-4.2-3.4-6.8-4.4c-2.5-1-5.2-1.4-7.9-1.2c-3.2-0.2-6.5,0.3-9.5,1.5
	c-3.1,1.1-5.9,2.9-8.2,5.2c-1.6,1.5-3,3.4-4.1,5.3c-1,1.9-1.6,3.2-2,4.1v-14.7h-27.1v4.1h9.2v55h-9.2v4.1h36.1v-4.1h-9.1v-29.6
	c-0.1-3.7,0.4-7.5,1.4-11c0.8-2.9,2.1-5.6,3.8-8.1c1.5-2,3.3-3.6,5.5-4.8c2.1-1,4.3-1.6,6.6-1.6c1.2-0.1,2.4,0.2,3.5,0.6
	c1.1,0.5,2.1,1.2,3,2.1c1.7,2.3,2.6,5.2,2.4,8.1v43.4h-8.9v4.1h36v-4.1L207.5,320.7z M257.9,297.6c1.4-0.4,2.6-1.3,3.5-2.4
	c1.1-1.5,1.8-3.3,2.2-5.1c0.5-2.9,0.8-5.9,0.8-8.8c0.1-2.4,0.1-4.7,0-7.1c-0.1-2-0.6-3.9-1.4-5.7c-0.7-1.5-1.9-2.8-3.3-3.7
	c-1.8-1-3.9-1.5-6-1.4c-2.1-0.1-4.1,0.4-5.9,1.4c-1.4,0.9-2.6,2.2-3.4,3.6c-0.8,1.7-1.4,3.4-1.7,5.2c-0.2,1.9-0.2,3.9,0,5.9
	c-0.1,3.3,0.2,6.7,0.8,10c0.5,2,1.3,3.9,2.4,5.6c0.9,1.3,2.2,2.1,3.7,2.4c1.5,0.4,3,0.6,4.6,0.6c1.6,0.1,3.1-0.2,4.6-0.6H257.9z
	 M245.8,331.6c-3.2-0.1-6.3-0.5-9.4-1c-2.4-0.5-4.7-1.3-6.8-2.5c-2.1-1.2-4-2.9-5.4-4.9c-1.5-2.3-2.2-5.1-2.1-7.8
	c-0.1-0.9-0.1-1.8,0-2.7c0.3-1.6,0.8-3.1,1.6-4.5c1-2,2.3-3.8,3.9-5.4c2.1-2.1,4.5-3.9,7.2-5.3c-1-0.8-2-1.6-2.9-2.4
	c-2.4-2-4.2-4.6-5.3-7.6c-0.7-1.8-1-3.7-1-5.7c0-3,0.6-5.9,1.9-8.6c1.3-2.8,3.2-5.2,5.6-7.1c2.6-2.2,5.6-3.8,8.8-4.8
	c3.8-1.3,7.7-1.9,11.6-1.8c3.8-0.1,7.6,0.6,11.1,2c2.8,1.3,5.4,2.9,7.8,4.8c2.1-2,4.5-3.8,7-5.3c2.4-1.3,5.1-1.9,7.9-1.7
	c2.3-0.2,4.5,0.6,6.2,2.1c1.2,1.5,1.8,3.3,1.7,5.3c0.1,1.7-0.5,3.4-1.7,4.6c-1.3,1.2-2.9,1.8-4.6,1.7c-1.1,0-2.2-0.2-3.2-0.6
	c-0.7-0.3-1.3-0.7-1.8-1.4c-0.5-0.5-0.7-1.1-0.9-1.8v-1.5c0.1-0.4,0.1-0.8,0-1.2c0-0.7-0.5-1.1-1.6-1.1c-0.7,0-1.4,0.2-2,0.7
	c-1.1,0.9-2.2,1.8-3.2,2.8c0.7,1,1.4,1.9,2.2,3.1c1.5,2.8,2.2,6,2.1,9.2c0,2.5-0.5,5-1.4,7.3c-0.9,2.5-2.5,4.8-4.4,6.6
	c-2.3,2.1-4.9,3.8-7.9,4.9c-3.9,1.3-8,1.9-12,1.8c-3.4,0.1-6.8-0.3-10.1-1.1c-2.5-0.7-4.9-1.4-7.3-2.4c-2,1.1-3.7,2.7-4.9,4.8
	c-0.5,1.1-0.7,2.4-0.7,3.6c-0.1,1.1,0.2,2.2,0.7,3.1c0.5,1,1.3,1.8,2.2,2.3c2.4,1.3,5.1,1.9,7.9,1.8h15.7c3.5,0,7,0.4,10.4,1.1
	c3.1,0.7,6,1.9,8.6,3.7c14.6,10.2,6.3,21.4-1.4,25c-3.4,1.3-6.9,2.2-10.5,2.7c1.5-0.6,2.9-1.3,4.2-2.2c2.4-1.6,4-4.2,4.2-7
	c0-2.5-3.7-6.6-12.5-6.3L245.8,331.6z M366.1,320.7v-59.1h-26.9v4.1h9.4V301c0,2.4-0.3,4.8-1,7.1c-0.7,2.2-1.7,4.2-3,6
	c-1.3,1.7-2.9,3-4.6,4c-1.8,1-3.8,1.6-5.9,1.6c-1.5,0.2-3.1,0-4.5-0.6c-1.4-0.6-2.6-1.7-3.4-3c-1.4-2.7-2-5.7-1.7-8.7v-45.8h-27.2
	v4.1h9.6v40.5c-0.3,2.8,0,5.6,0.9,8.2c0.9,2.6,2.4,5,4.3,7c4.4,3.3,9.8,4.9,15.3,4.5c2.2,0,4.3-0.3,6.4-0.8c2.2-0.6,4.2-1.4,6.2-2.4
	c1.9-1.1,3.6-2.5,5.2-4.1c1.5-1.6,2.7-3.6,3.4-5.7v11.8h26.8v-4L366.1,320.7z M419.2,276.6V273c-0.1-1.5-0.5-3-1-4.4
	c-0.6-1.4-1.5-2.7-2.7-3.7c-1.6-1.1-3.5-1.6-5.4-1.5c-2.6-0.2-5.3,0.6-7.4,2.2c-1.7,1.4-3.1,3.3-3.9,5.4c-0.9,2.3-1.4,4.7-1.6,7.2
	c0,2.6-0.5,5-0.6,7.4h22.8L419.2,276.6z M396.4,294.3c0,3.3,0.2,6.7,0.5,10c0.2,3.2,1,6.2,2.3,9.1c1.2,2.7,3,5,5.4,6.7
	c3,1.9,6.5,2.8,10,2.6c3.3,0.1,6.6-0.6,9.6-2c2.4-1.3,4.6-3,6.5-5.1c1.5-1.6,2.8-3.3,3.7-5.3c0.4-0.9,0.8-1.9,1.2-2.8l2.2,0.7
	c-0.5,2.1-1.4,4.1-2.4,6c-1.2,2.2-2.8,4.2-4.7,5.9c-2.2,1.9-4.7,3.5-7.4,4.6c-3.4,1.3-7.1,1.9-10.8,1.8c-4.7,0-9.4-0.7-13.9-2.3
	c-4.2-1.4-8-3.7-11.2-6.6c-3.2-2.8-5.7-6.2-7.5-10c-1.9-4.5-2.9-9.3-2.8-14.2c0-4.3,0.9-8.5,2.6-12.4c1.6-4,4-7.6,7.1-10.7
	c3.1-3.2,6.8-5.9,10.8-7.8c4.1-1.9,8.6-2.9,13.1-2.8c3.4,0,6.8,0.6,10,1.6c3.3,1.1,6.4,2.8,9,5.1c2.7,2.5,4.8,5.4,6.2,8.8
	c1.8,4.8,2.7,9.9,2.6,15h-42.1V294.3z M510.2,320.7v-59.1h-27v4.1h9.4V301c0,2.4-0.4,4.8-1.1,7.1c-0.6,2.2-1.6,4.2-3,6
	c-1.2,1.7-2.8,3-4.6,4c-1.8,1-3.9,1.6-6,1.6c-1.5,0.2-3.1,0-4.5-0.6c-1.4-0.6-2.6-1.7-3.4-3c-1.3-2.7-1.9-5.7-1.7-8.7v-45.8h-27.2
	v4.1h9.6v40.5c-0.3,2.8,0.1,5.6,1,8.2c0.9,2.6,2.4,5,4.3,7c4.4,3.3,9.8,4.9,15.3,4.5c2.1,0,4.3-0.3,6.4-0.8c2.1-0.6,4.2-1.4,6.2-2.4
	c1.9-1.1,3.7-2.5,5.2-4.1c1.5-1.6,2.7-3.6,3.5-5.7v11.8h26.7v-4L510.2,320.7L510.2,320.7z M551.6,320.7v-59.2h-27.2v4.1h9.6v55.1
	h-9.6v4.1h36.7v-4.1H551.6z M535.5,221.4c3.4-3.5,8.8-4,12.7-1.2c1.9,1.4,3.4,3.3,4,5.6c0.7,2.3,0.6,4.8-0.3,7
	c-0.9,2.2-2.5,4-4.6,5.1c-2.1,1.1-4.4,1.5-6.7,1c-2.3-0.5-4.3-1.7-5.8-3.6c-1.5-1.9-2.3-4.2-2.3-6.6c0-1.4,0.2-2.7,0.8-4
	C533.8,223.5,534.5,222.4,535.5,221.4L535.5,221.4z M592.9,320.7V218.5h-27.1v4.1h9.6v98h-9.6v4.1h36.7v-4.1H592.9z M592.9,320.7"/>
<path class="st0" d="M263.8,370.8c41.8-5.5,83.2-6.3,117,4.3c12.2,3.8,23.6,8.1,36.4,13.1c31,11.9,63,24.3,102.3,25.6
	c34.4,0.6,68.7-3,102.3-10.4c-40,12.1-76.3,21.7-123.1,20.2c-81.6-2.7-113.8-42.7-178.2-48c-18.7-1.5-37.5-1.1-56.1,1.2
	c-25.7,2.4-40.1-9.8-39.9-21.2c0.2-11.4,10.9-19.3,24.8-20.2c-3.8,1.7-6.8,4.7-8.7,8.4c-1.9,3.8-2.5,8-1.7,12.2
	c0.8,4.1,2.9,7.8,6,10.6c3.1,2.7,7,4.3,11.1,4.4c2.4,0.2,4.9,0.2,7.3,0"/>
</svg>
